<svg xmlns="http://www.w3.org/2000/svg" xmlns:xlink="http://www.w3.org/1999/xlink" width="70" height="70" viewBox="0 0 70 70"><defs><style>.a{fill:#fff;}.b{clip-path:url(#g);}.c{fill:rgba(255,255,255,0.04);}.d{fill:#1c7cd5;stroke:#1c7cd5;fill-rule:evenodd;}.e{fill:none;}.f{filter:url(#e);}.g{filter:url(#c);}.h{filter:url(#a);}</style><filter id="a" x="9" y="10" width="52" height="52" filterUnits="userSpaceOnUse"><feOffset dy="2" input="SourceAlpha"/><feGaussianBlur stdDeviation="2" result="b"/><feFlood flood-opacity="0.2"/><feComposite operator="in" in2="b"/><feComposite in="SourceGraphic"/></filter><filter id="c" x="0" y="0" width="70" height="70" filterUnits="userSpaceOnUse"><feOffset dy="1" input="SourceAlpha"/><feGaussianBlur stdDeviation="5" result="d"/><feFlood flood-opacity="0.122"/><feComposite operator="in" in2="d"/><feComposite in="SourceGraphic"/></filter><filter id="e" x="7.5" y="10.5" width="55" height="55" filterUnits="userSpaceOnUse"><feOffset dy="4" input="SourceAlpha"/><feGaussianBlur stdDeviation="2.5" result="f"/><feFlood flood-opacity="0.141"/><feComposite operator="in" in2="f"/><feComposite in="SourceGraphic"/></filter><clipPath id="g"><circle class="a" cx="20" cy="20" r="20"/></clipPath></defs><g transform="translate(2301 -6347)"><g transform="translate(-2286 6361)"><g class="h" transform="matrix(1, 0, 0, 1, -15, -14)"><rect class="a" width="40" height="40" rx="20" transform="translate(15 14)"/></g><g class="g" transform="matrix(1, 0, 0, 1, -15, -14)"><rect class="a" width="40" height="40" rx="20" transform="translate(15 14)"/></g><g class="f" transform="matrix(1, 0, 0, 1, -15, -14)"><rect class="a" width="40" height="40" rx="20" transform="translate(15 14)"/></g><g class="b"><rect class="a" width="40" height="40"/></g><g class="b"><rect class="c"/></g></g><g transform="translate(-2277 6370)"><g transform="translate(1.941 6.471)"><path class="d" d="M92.2,390.2a.7.7,0,0,1,.987,0l7.868,7.827,7.868-7.827a.7.7,0,0,1,.987,0,.69.69,0,0,1,0,.981l-8.361,8.317a.7.7,0,0,1-.987,0L92.2,391.185a.69.69,0,0,1,0-.981Z" transform="translate(-92 -390)"/></g><rect class="e" width="22" height="22"/></g></g></svg>