<svg xmlns="http://www.w3.org/2000/svg" width="57" height="57" viewBox="0 0 57 57"><defs><style>.a{fill:#666;}.b{fill:none;}</style></defs><g transform="translate(3 3)"><path class="a" d="M206.1,282.616h-3.146v8.34h-2.115v-8.34h-3.1v-1.67H206.1Z" transform="translate(-183.647 -253.723)"/><path class="a" d="M204.482,282.42l.064.831a2.714,2.714,0,0,1,2.193-.969,2.046,2.046,0,0,1,2.025,1.135,2.64,2.64,0,0,1,2.291-1.135,2.3,2.3,0,0,1,1.849.708,3.169,3.169,0,0,1,.607,2.118v4.75h-2.045v-4.745a1.37,1.37,0,0,0-.255-.92,1.126,1.126,0,0,0-.894-.3,1.271,1.271,0,0,0-1.27.852l.005,5.109h-2.038v-4.737a1.377,1.377,0,0,0-.26-.934,1.153,1.153,0,0,0-.889-.29,1.328,1.328,0,0,0-1.255.7v5.26h-2.04V282.42Z" transform="translate(-179.675 -252.625)"/><path class="a" d="M233.727,279.6H222.035a8.13,8.13,0,0,0,1.974-5.3,8.512,8.512,0,0,0-17.019,0,8.13,8.13,0,0,0,1.974,5.3H197.273L190,317h51ZM215.5,268.989a5.307,5.307,0,1,1-5.444,5.306A5.382,5.382,0,0,1,215.5,268.989Zm-15.688,13.6h31.376l6.111,31.423H193.7Z" transform="translate(-190 -266)"/></g><rect class="b" width="57" height="57"/></svg>