<svg id="Componente_171_1" data-name="Componente 171 – 1" xmlns="http://www.w3.org/2000/svg" width="28" height="28" viewBox="0 0 28 28">
<path id="Trazado_23" data-name="Trazado 23" d="M202.326,281.863H200.6v4.579h-1.161v-4.579h-1.7v-.917h4.592Z" transform="translate(-188 -266)" fill="#717171"/>
<path id="Trazado_24" data-name="Trazado 24" d="M203.62,282.358l.035.456a1.49,1.49,0,0,1,1.2-.532,1.123,1.123,0,0,1,1.112.623,1.515,1.515,0,0,1,.155.732l0,2.8H205.01v-2.6a.756.756,0,0,0-.143-.513.633.633,0,0,0-.488-.159.729.729,0,0,0-.689.385v2.888h-1.12v-4.084Z" transform="translate(-188 -266)" fill="#717171"/>
<path id="Trazado_25" data-name="Trazado 25" d="M214.007,273.466h-6.419a4.464,4.464,0,0,0,1.084-2.912,4.674,4.674,0,0,0-9.344,0,4.464,4.464,0,0,0,1.084,2.912h-6.419L190,294h28ZM204,267.641a2.913,2.913,0,1,1-2.989,2.913A2.955,2.955,0,0,1,204,267.641Zm-8.613,7.466h17.226l3.355,17.252H192.032Z" transform="translate(-190 -266)" fill="#717171"/>
</svg>