<svg width="29" height="28" viewBox="0 0 29 28" fill="none" xmlns="http://www.w3.org/2000/svg">
<path d="M5.45834 14.9917L12.575 4.75418V14.9917H5.45834ZM7.00417 14.175H11.7583V7.35002L7.00417 14.175ZM16.1333 14.9917C16.3278 14.4083 16.5222 13.5188 16.7167 12.3229C16.9111 11.1271 17.0083 9.93613 17.0083 8.75002C17.0083 7.40835 16.9111 6.16877 16.7167 5.03127C16.5222 3.89377 16.3375 2.96529 16.1625 2.24585C17.2514 2.82918 18.2625 3.55835 19.1958 4.43335C20.1292 5.30835 20.9458 6.29516 21.6458 7.39377C22.3458 8.49238 22.9195 9.68335 23.3667 10.9667C23.8139 12.25 24.0958 13.5917 24.2125 14.9917H16.1333ZM17.2125 14.175H23.2792C23.007 12.1334 22.3507 10.2229 21.3104 8.44377C20.2701 6.6646 18.9625 5.17224 17.3875 3.96668C17.5236 4.74446 17.6306 5.55141 17.7083 6.38752C17.7861 7.22363 17.825 8.01113 17.825 8.75002C17.825 9.62502 17.7667 10.5292 17.65 11.4625C17.5333 12.3959 17.3875 13.3 17.2125 14.175ZM11 22.3417C10.4167 22.3417 9.82362 22.2445 9.22084 22.05C8.61806 21.8556 8.04445 21.5056 7.50001 21C7.34445 21.1556 7.16945 21.316 6.97501 21.4813C6.78056 21.6465 6.59584 21.7681 6.42084 21.8459C5.81806 21.3792 5.30279 20.8396 4.87501 20.2271C4.44723 19.6146 4.09723 18.9584 3.82501 18.2584H25.175C24.9028 18.9584 24.5528 19.6146 24.125 20.2271C23.6972 20.8396 23.182 21.3792 22.5792 21.8459C22.4042 21.7681 22.2195 21.6465 22.025 21.4813C21.8306 21.316 21.6556 21.1556 21.5 21C20.9556 21.5056 20.382 21.8556 19.7792 22.05C19.1764 22.2445 18.5833 22.3417 18 22.3417C17.4167 22.3417 16.8188 22.2445 16.2063 22.05C15.5938 21.8556 15.025 21.4959 14.5 20.9708C13.975 21.4959 13.4063 21.8556 12.7938 22.05C12.1813 22.2445 11.5833 22.3417 11 22.3417ZM3.59167 26.075V25.2584H4.00001C4.62223 25.2584 5.22501 25.1611 5.80834 24.9667C6.39167 24.7722 6.95556 24.5097 7.50001 24.1792C8.0639 24.5097 8.63265 24.7722 9.20626 24.9667C9.77987 25.1611 10.3778 25.2584 11 25.2584C11.6222 25.2584 12.2201 25.1611 12.7938 24.9667C13.3674 24.7722 13.9361 24.5097 14.5 24.1792C15.0639 24.5097 15.6326 24.7722 16.2063 24.9667C16.7799 25.1611 17.3778 25.2584 18 25.2584C18.6222 25.2584 19.225 25.1611 19.8083 24.9667C20.3917 24.7722 20.9556 24.5097 21.5 24.1792C22.0639 24.5097 22.6326 24.7722 23.2063 24.9667C23.7799 25.1611 24.3778 25.2584 25 25.2584H25.4083V26.075H25C24.4556 26.075 23.8917 25.9972 23.3083 25.8417C22.725 25.6861 22.1222 25.4431 21.5 25.1125C20.8778 25.4431 20.275 25.6861 19.6917 25.8417C19.1083 25.9972 18.5445 26.075 18 26.075C17.4556 26.075 16.8917 25.9972 16.3083 25.8417C15.725 25.6861 15.1222 25.4431 14.5 25.1125C13.8778 25.4431 13.275 25.6861 12.6917 25.8417C12.1083 25.9972 11.5445 26.075 11 26.075C10.4556 26.075 9.89167 25.9972 9.30834 25.8417C8.72501 25.6861 8.12223 25.4431 7.50001 25.1125C6.87779 25.4431 6.27501 25.6861 5.69167 25.8417C5.10834 25.9972 4.54445 26.075 4.00001 26.075H3.59167Z" fill="#4D60A8"/>
</svg>
